<svg width="130" height="20" viewBox="0 0 130 20" fill="none" xmlns="http://www.w3.org/2000/svg">
<path fill-rule="evenodd" clip-rule="evenodd" d="M87.8408 15.0574H89.0713V0H87.8408V15.0574Z" fill="#CC0000"/>
<path fill-rule="evenodd" clip-rule="evenodd" d="M92.3242 15.0574H93.5547V4.62965H92.3242V15.0574ZM92.3242 2.02283H93.5547V0.45874H92.3242V2.02283Z" fill="#CC0000"/>
<path fill-rule="evenodd" clip-rule="evenodd" d="M100.562 4.42114C101.188 4.42114 101.931 4.49097 102.794 4.62973L103.273 4.69233L103.211 5.75585C102.112 5.61709 101.299 5.54726 100.771 5.54726C99.5331 5.54726 98.6852 5.84964 98.2262 6.45462C97.7676 7.05938 97.538 8.17194 97.538 9.79162C97.538 11.4113 97.7468 12.541 98.164 13.1804C98.581 13.8202 99.4497 14.1397 100.771 14.1397L103.252 13.9521L103.294 15.0157C102.057 15.1824 101.139 15.2658 100.541 15.2658C98.8865 15.2658 97.757 14.8561 97.1523 14.0355C96.5475 13.2152 96.2451 11.8041 96.2451 9.80202C96.2451 7.79973 96.5753 6.40264 97.2356 5.61009C97.896 4.81753 99.0047 4.42114 100.562 4.42114Z" fill="#CC0000"/>
<path fill-rule="evenodd" clip-rule="evenodd" d="M105.714 15.0574H106.944V4.62965H105.714V15.0574ZM105.714 2.02283H106.944V0.45874H105.714V2.02283Z" fill="#CC0000"/>
<path fill-rule="evenodd" clip-rule="evenodd" d="M111.303 15.0572H110.072V4.62951H111.303V5.40127C112.471 4.74793 113.604 4.42114 114.702 4.42114C116.092 4.42114 117.02 4.78951 117.486 5.52647C117.952 6.26366 118.185 7.61193 118.185 9.57218V15.0572H116.934V9.63501C116.934 8.03634 116.78 6.95497 116.475 6.3918C116.169 5.82885 115.516 5.54726 114.514 5.54726C114.028 5.54726 113.516 5.62026 112.981 5.76625C112.446 5.91224 112.033 6.06185 111.741 6.21462L111.303 6.42321V15.0572Z" fill="#CC0000"/>
<path fill-rule="evenodd" clip-rule="evenodd" d="M122.126 7.9561C122.126 8.85283 122.321 9.48584 122.71 9.85375C123.099 10.2223 123.756 10.4065 124.681 10.4065C125.605 10.4065 126.262 10.226 126.652 9.86415C127.041 9.50301 127.236 8.86684 127.236 7.9561C127.236 7.04557 127.041 6.4024 126.652 6.02703C126.262 5.65165 125.605 5.46385 124.681 5.46385C123.756 5.46385 123.099 5.65504 122.71 6.03742C122.321 6.4198 122.126 7.05913 122.126 7.9561ZM121.98 16.7049C121.98 17.5391 122.189 18.1158 122.606 18.4358C123.023 18.7554 123.829 18.9154 125.025 18.9154C126.22 18.9154 127.076 18.745 127.59 18.4044C128.104 18.0638 128.362 17.4936 128.362 16.6943C128.362 15.8947 128.174 15.377 127.799 15.1406C127.423 14.9045 126.707 14.7863 125.651 14.7863L123.294 14.7029C122.779 15.064 122.432 15.3806 122.251 15.6516C122.07 15.9228 121.98 16.2737 121.98 16.7049ZM129.634 16.6423C129.634 17.8238 129.255 18.6787 128.497 19.2073C127.739 19.7357 126.561 19.9999 124.962 19.9999C123.363 19.9999 122.258 19.7705 121.646 19.3118C121.035 18.853 120.729 18.0114 120.729 16.7883C120.729 16.2044 120.854 15.735 121.104 15.3806C121.355 15.026 121.792 14.6193 122.418 14.1605C122.07 13.9383 121.896 13.4653 121.896 12.7424C121.896 12.52 122.063 12.0823 122.397 11.4285L122.564 11.1155C121.424 10.6431 120.854 9.59318 120.854 7.96649C120.854 5.60306 122.112 4.4209 124.629 4.4209C125.338 4.4209 125.963 4.49073 126.506 4.62949L126.819 4.69232L129.843 4.62949V5.73504L127.757 5.69323C128.257 6.19381 128.508 7.01755 128.508 8.16469C128.508 9.3116 128.191 10.1457 127.559 10.6671C126.926 11.1887 125.929 11.4493 124.566 11.4493C124.163 11.4493 123.808 11.4217 123.503 11.3659C123.224 12.0475 123.086 12.4784 123.086 12.659C123.086 13.1178 123.221 13.3993 123.492 13.5035C123.763 13.6079 124.573 13.6635 125.922 13.6703C127.27 13.6775 128.226 13.8789 128.789 14.2753C129.353 14.6715 129.634 15.4604 129.634 16.6423Z" fill="#CC0000"/>
<path fill-rule="evenodd" clip-rule="evenodd" d="M7.23559 12.0513V11.0571L0 6.79739V1.56747L1.82308 0.419434H8.94952L10.8535 1.52137V3.81836H3.61791V5.08165L10.8535 9.34138V13.9833L9.00986 15.0434L1.82218 15.0373L0 13.9833V12.0513H7.23559Z" fill="#CC0000"/>
<path fill-rule="evenodd" clip-rule="evenodd" d="M17.7998 9.4036H20.3011L19.0609 4.64443L17.7998 9.4036ZM21.7689 15.0681L21.0453 12.3392H17.0554L16.332 15.0681H14.5555L13.0117 14.1442L17.2414 0.59668H20.8593L25.0998 14.1646L23.5445 15.0681H21.7689Z" fill="#CC0000"/>
<path fill-rule="evenodd" clip-rule="evenodd" d="M27.2471 13.9831V1.70608L29.0803 0.59668H30.865V11.4502H34.4827V13.9831L32.6677 15.0681H29.0968L27.2471 13.9831Z" fill="#CC0000"/>
<path fill-rule="evenodd" clip-rule="evenodd" d="M41.4297 9.4036H43.931L42.6908 4.64443L41.4297 9.4036ZM45.3989 15.0681L44.6752 12.3184H40.6853L39.9619 15.0681H38.1368L36.624 14.226L40.8713 0.59668H44.4892L48.753 14.1338L47.1259 15.0681H45.3989Z" fill="#CC0000"/>
<path fill-rule="evenodd" clip-rule="evenodd" d="M65.3484 1.70632V13.9655L63.4979 15.0681H61.7305V6.90233L58.1125 12.36L54.4951 6.90233V15.0681H52.7233L50.877 13.9655V1.70632L52.7233 0.596924H54.4951L58.1125 6.03384L61.7305 0.596924H63.4979L65.3484 1.70632Z" fill="#CC0000"/>
<path fill-rule="evenodd" clip-rule="evenodd" d="M71.0329 0.596924V13.9962L69.2232 15.0683H67.415V1.70632L69.2239 0.596924H71.0329Z" fill="#CC0000"/>
<path fill-rule="evenodd" clip-rule="evenodd" d="M80.6043 1.48065C78.3656 1.48065 77.2468 2.33558 77.2468 4.04589C77.2468 5.04681 77.5005 5.72162 78.0081 6.06897C78.5153 6.41655 79.5096 6.73633 80.9901 7.02831C82.471 7.32006 83.5273 7.72346 84.1601 8.23759C84.7926 8.7524 85.1093 9.61411 85.1093 10.8238C85.1093 12.3812 84.7235 13.5037 83.9519 14.192C83.1797 14.8802 82.0502 15.2241 80.5627 15.2241C79.4784 15.2241 78.2199 15.127 76.788 14.9322L76.0372 14.8282L76.183 13.7226C78.0879 13.9593 79.5618 14.0772 80.6043 14.0772C81.6473 14.0772 82.4396 13.8237 82.982 13.3161C83.5241 12.8087 83.7951 12.0648 83.7951 11.0844C83.7951 10.1043 83.5556 9.43693 83.0758 9.08258C82.5962 8.72777 81.8315 8.45342 80.7817 8.25861C79.7318 8.06403 78.9636 7.88685 78.4773 7.72685C77.9905 7.5673 77.5354 7.33769 77.1112 7.0387C76.687 6.73972 76.3846 6.35756 76.204 5.89157C76.0232 5.4258 75.9326 4.83822 75.9326 4.12928C75.9326 1.59884 77.4621 0.33374 80.5209 0.33374C81.4385 0.33374 82.6342 0.430917 84.1081 0.625722L84.7963 0.729905L84.6921 1.83523C82.7734 1.59884 81.4107 1.48065 80.6043 1.48065Z" fill="#CC0000"/>
</svg>
